<svg width="20" height="20" viewBox="0 0 20 20" fill="none" xmlns="http://www.w3.org/2000/svg">
<path d="M17.8128 8.1875C17.8128 8.1875 16.8753 9.0625 15.2815 10.0938C14.844 7.5625 13.6253 4.4375 11.2503 0.625C11.2503 0.625 10.469 4.71875 7.87526 8.5625C6.75026 6.8125 6.25026 5.4375 6.25026 5.4375C-1.87474 13.5938 4.87526 19.375 9.12526 19.375C14.5628 19.375 19.344 16.75 17.8128 8.1875Z" fill="#FF9D33"/>
<path d="M14.5938 15.4375C15.0625 14.4063 15.4062 13.0625 15.4688 11.375C15.4688 11.375 14.8125 11.9375 13.6875 12.6562C13.375 10.9688 12.5312 8.90625 10.875 6.34375C10.875 6.34375 10.3438 9.0625 8.53125 11.6562C7.75 10.5 7.40625 9.5625 7.40625 9.5625C6.0625 11.6875 5.53125 13.375 5.5 14.7188C4.75 14.4375 4.28125 14.2188 4.28125 14.2188C5.5625 18.0312 8.21875 18.875 9.40625 18.875C11.5313 18.875 13.6875 18.25 15.8125 15.2188C15.8125 15.1875 15.3438 15.3125 14.5938 15.4375Z" fill="#FFCE31"/>
<path d="M6.8433 13.7188C6.8433 13.7188 7.7183 14.9062 8.37455 14.625C8.37455 14.625 9.62455 12.6562 11.437 11.5625C11.437 11.5625 11.062 14.5625 11.4995 15.0937C12.062 15.8125 13.5933 14.3125 13.5933 14.3125C13.5933 16.0937 11.6558 18.3125 9.9058 18.3125C8.2183 18.3125 5.7808 16.375 6.8433 13.7188Z" fill="#FFDF85"/>
<path d="M15.5626 5.65625C16.2189 4.71875 16.6564 3.71875 16.6564 3.71875C17.7501 5.53125 17.0939 6.625 16.6251 6.96875C15.9689 7.46875 14.8126 6.75 15.5626 5.65625ZM3.6251 5.34375C2.96885 4.25 2.90635 2.875 2.90635 2.875C1.34385 5.21875 1.9376 6.53125 2.46885 6.90625C3.15635 7.4375 4.34385 6.625 3.6251 5.34375ZM7.2501 2.90625C7.34385 2.15625 7.03135 1.40625 7.03135 1.40625C8.5001 2.375 8.5001 3.1875 8.3126 3.53125C8.03135 3.9375 7.15635 3.75 7.2501 2.90625Z" fill="#FF9D33"/>
</svg>
